<mxfile host="app.diagrams.net" modified="2024-09-09T11:22:15.752Z" agent="Mozilla/5.0 (Windows NT 10.0; Win64; x64) AppleWebKit/537.36 (KHTML, like Gecko) Chrome/127.0.0.0 Safari/537.36" version="24.4.13" etag="OrlbOajgiwPhWnnhFd4D" type="github">
  <diagram name="Page-1" id="PFfwJoSil6PYe0tJPWHp">
    <mxGraphModel>
      <root>
        <mxCell id="0" />
        <mxCell id="1" parent="0" />
      </root>
    </mxGraphModel>
  </diagram>
</mxfile>
